<?xml version="1.0" encoding="UTF-8" standalone="no"?>
<!DOCTYPE svg PUBLIC "-//W3C//DTD SVG 1.1//EN"
 "http://www.w3.org/Graphics/SVG/1.1/DTD/svg11.dtd">
<!-- Generated by graphviz version 2.43.0 (0)
 -->
<!-- Title: Tree Pages: 1 -->
<svg width="446pt" height="314pt"
 viewBox="0.00 0.00 445.50 314.00" xmlns="http://www.w3.org/2000/svg" xmlns:xlink="http://www.w3.org/1999/xlink">
<g id="graph0" class="graph" transform="scale(1 1) rotate(0) translate(4 310)">
<title>Tree</title>
<polygon fill="white" stroke="transparent" points="-4,4 -4,-310 441.5,-310 441.5,4 -4,4"/>
<!-- 0 -->
<g id="node1" class="node">
<title>0</title>
<path fill="#fcf2eb" stroke="black" d="M329,-306C329,-306 151,-306 151,-306 145,-306 139,-300 139,-294 139,-294 139,-235 139,-235 139,-229 145,-223 151,-223 151,-223 329,-223 329,-223 335,-223 341,-229 341,-235 341,-235 341,-294 341,-294 341,-300 335,-306 329,-306"/>
<text text-anchor="start" x="147" y="-290.8" font-family="Helvetica,sans-Serif" font-size="14.00">Jam Belajar per Minggu ≤ 10.5</text>
<text text-anchor="start" x="192.5" y="-275.8" font-family="Helvetica,sans-Serif" font-size="14.00">entropy = 1.566</text>
<text text-anchor="start" x="199" y="-260.8" font-family="Helvetica,sans-Serif" font-size="14.00">samples = 15</text>
<text text-anchor="start" x="193" y="-245.8" font-family="Helvetica,sans-Serif" font-size="14.00">value = [6, 5, 4]</text>
<text text-anchor="start" x="200.5" y="-230.8" font-family="Helvetica,sans-Serif" font-size="14.00">class = Lulus</text>
</g>
<!-- 1 -->
<g id="node2" class="node">
<title>1</title>
<path fill="#f6d5bd" stroke="black" d="M222,-187C222,-187 48,-187 48,-187 42,-187 36,-181 36,-175 36,-175 36,-116 36,-116 36,-110 42,-104 48,-104 48,-104 222,-104 222,-104 228,-104 234,-110 234,-116 234,-116 234,-175 234,-175 234,-181 228,-187 222,-187"/>
<text text-anchor="start" x="44" y="-171.8" font-family="Helvetica,sans-Serif" font-size="14.00">Nilai Ujian Sebelumnya ≤ 57.0</text>
<text text-anchor="start" x="87.5" y="-156.8" font-family="Helvetica,sans-Serif" font-size="14.00">entropy = 0.971</text>
<text text-anchor="start" x="94" y="-141.8" font-family="Helvetica,sans-Serif" font-size="14.00">samples = 10</text>
<text text-anchor="start" x="88" y="-126.8" font-family="Helvetica,sans-Serif" font-size="14.00">value = [6, 0, 4]</text>
<text text-anchor="start" x="95.5" y="-111.8" font-family="Helvetica,sans-Serif" font-size="14.00">class = Lulus</text>
</g>
<!-- 0&#45;&gt;1 -->
<g id="edge1" class="edge">
<title>0&#45;&gt;1</title>
<path fill="none" stroke="black" d="M203.57,-222.91C195.35,-213.74 186.54,-203.93 178.07,-194.49"/>
<polygon fill="black" stroke="black" points="180.65,-192.13 171.36,-187.02 175.44,-196.8 180.65,-192.13"/>
<text text-anchor="middle" x="170.02" y="-208.28" font-family="Helvetica,sans-Serif" font-size="14.00">True</text>
</g>
<!-- 4 -->
<g id="node5" class="node">
<title>4</title>
<path fill="#39e581" stroke="black" d="M425.5,-179.5C425.5,-179.5 264.5,-179.5 264.5,-179.5 258.5,-179.5 252.5,-173.5 252.5,-167.5 252.5,-167.5 252.5,-123.5 252.5,-123.5 252.5,-117.5 258.5,-111.5 264.5,-111.5 264.5,-111.5 425.5,-111.5 425.5,-111.5 431.5,-111.5 437.5,-117.5 437.5,-123.5 437.5,-123.5 437.5,-167.5 437.5,-167.5 437.5,-173.5 431.5,-179.5 425.5,-179.5"/>
<text text-anchor="start" x="305" y="-164.3" font-family="Helvetica,sans-Serif" font-size="14.00">entropy = 0.0</text>
<text text-anchor="start" x="307.5" y="-149.3" font-family="Helvetica,sans-Serif" font-size="14.00">samples = 5</text>
<text text-anchor="start" x="298" y="-134.3" font-family="Helvetica,sans-Serif" font-size="14.00">value = [0, 5, 0]</text>
<text text-anchor="start" x="260.5" y="-119.3" font-family="Helvetica,sans-Serif" font-size="14.00">class = Lulus dengan Pujian</text>
</g>
<!-- 0&#45;&gt;4 -->
<g id="edge4" class="edge">
<title>0&#45;&gt;4</title>
<path fill="none" stroke="black" d="M276.43,-222.91C286.83,-211.32 298.16,-198.7 308.55,-187.11"/>
<polygon fill="black" stroke="black" points="311.16,-189.45 315.23,-179.67 305.95,-184.77 311.16,-189.45"/>
<text text-anchor="middle" x="316.58" y="-200.93" font-family="Helvetica,sans-Serif" font-size="14.00">False</text>
</g>
<!-- 2 -->
<g id="node3" class="node">
<title>2</title>
<path fill="#8139e5" stroke="black" d="M120,-68C120,-68 12,-68 12,-68 6,-68 0,-62 0,-56 0,-56 0,-12 0,-12 0,-6 6,0 12,0 12,0 120,0 120,0 126,0 132,-6 132,-12 132,-12 132,-56 132,-56 132,-62 126,-68 120,-68"/>
<text text-anchor="start" x="26" y="-52.8" font-family="Helvetica,sans-Serif" font-size="14.00">entropy = 0.0</text>
<text text-anchor="start" x="28.5" y="-37.8" font-family="Helvetica,sans-Serif" font-size="14.00">samples = 4</text>
<text text-anchor="start" x="19" y="-22.8" font-family="Helvetica,sans-Serif" font-size="14.00">value = [0, 0, 4]</text>
<text text-anchor="start" x="8" y="-7.8" font-family="Helvetica,sans-Serif" font-size="14.00">class = Tidak Lulus</text>
</g>
<!-- 1&#45;&gt;2 -->
<g id="edge2" class="edge">
<title>1&#45;&gt;2</title>
<path fill="none" stroke="black" d="M109.31,-103.73C103.79,-94.97 97.95,-85.7 92.41,-76.91"/>
<polygon fill="black" stroke="black" points="95.28,-74.89 86.98,-68.3 89.35,-78.63 95.28,-74.89"/>
</g>
<!-- 3 -->
<g id="node4" class="node">
<title>3</title>
<path fill="#e58139" stroke="black" d="M248,-68C248,-68 162,-68 162,-68 156,-68 150,-62 150,-56 150,-56 150,-12 150,-12 150,-6 156,0 162,0 162,0 248,0 248,0 254,0 260,-6 260,-12 260,-12 260,-56 260,-56 260,-62 254,-68 248,-68"/>
<text text-anchor="start" x="165" y="-52.8" font-family="Helvetica,sans-Serif" font-size="14.00">entropy = 0.0</text>
<text text-anchor="start" x="167.5" y="-37.8" font-family="Helvetica,sans-Serif" font-size="14.00">samples = 6</text>
<text text-anchor="start" x="158" y="-22.8" font-family="Helvetica,sans-Serif" font-size="14.00">value = [6, 0, 0]</text>
<text text-anchor="start" x="165.5" y="-7.8" font-family="Helvetica,sans-Serif" font-size="14.00">class = Lulus</text>
</g>
<!-- 1&#45;&gt;3 -->
<g id="edge3" class="edge">
<title>1&#45;&gt;3</title>
<path fill="none" stroke="black" d="M161.07,-103.73C166.66,-94.97 172.59,-85.7 178.21,-76.91"/>
<polygon fill="black" stroke="black" points="181.28,-78.61 183.71,-68.3 175.38,-74.84 181.28,-78.61"/>
</g>
</g>
</svg>